Gallery: 
 
http://imagedomino.com/?g=599948

Studio
Digital Playground
Starring
Erik Everhard, Manuel Ferrara, Toni Ribas, Juelz Ventura, Nacho Vidal, Samantha Saint, Selena Rose, Cassandra Nix
Genre
Feature

Sexy Selena Rose spices up a wild ride of nasty perversions. She gets pounded by her explosive boss Manuel Ferrara, and

before sliding down a lusty, long stripper pole, she gets banged hard by her hung boyfriend, Nacho Vidal. Hot stud Tony Ribas

gives Juelz Ventura the fat sausage injection to handle her hungry horniness. Nacho hits the tight wet holes of hottie

Cassandra Nix after a seductive massage and sultry Samantha Saint sells lingerie to thick tooled Erik Everhard for a raw and

orgasmic sinful adventure.

Duration                         : 1h 2mn
Bit rate                         : 1 409 Kbps
Width                            : 624 pixels
Height                           : 352 pixels
Display aspect ratio             : 16:9
Frame rate                       : 23.976 fps
Color space                      : YUV
Chroma subsampling               : 4:2:0
Bit depth                        : 8 bits
Scan type                        : Progressive
Compression mode                 : Lossy
Bits/(Pixel*Frame)               : 0.268
Stream size                      : 635 MiB (91%)

Duration                         : 58mn 29s
Bit rate                         : 1 539 Kbps
Width                            : 624 pixels
Height                           : 352 pixels
Display aspect ratio             : 16:9
Frame rate                       : 23.976 fps
Color space                      : YUV
Chroma subsampling               : 4:2:0
Bit depth                        : 8 bits
Scan type                        : Progressive
Compression mode                 : Lossy
Bits/(Pixel*Frame)               : 0.292
Stream size                      : 644 MiB (92%)